solid deneme1212
   facet normal -1.000000e+000 0.000000e+000 0.000000e+000
      outer loop
         vertex 2.500000e+001 1.200000e+002 5.000000e+001
         vertex 2.500000e+001 1.050000e+002 4.000000e+001
         vertex 2.500000e+001 6.500000e+001 4.000000e+001
      endloop
   endfacet
   facet normal -1.000000e+000 0.000000e+000 0.000000e+000
      outer loop
         vertex 2.500000e+001 1.050000e+002 4.000000e+001
         vertex 2.500000e+001 1.200000e+002 5.000000e+001
         vertex 2.500000e+001 1.050000e+002 2.000000e+001
      endloop
   endfacet
   facet normal -1.000000e+000 0.000000e+000 0.000000e+000
      outer loop
         vertex 2.500000e+001 1.050000e+002 2.000000e+001
         vertex 2.500000e+001 1.200000e+002 5.000000e+001
         vertex 2.500000e+001 1.200000e+002 0.000000e+000
      endloop
   endfacet
   facet normal -1.000000e+000 0.000000e+000 0.000000e+000
      outer loop
         vertex 2.500000e+001 1.050000e+002 2.000000e+001
         vertex 2.500000e+001 1.200000e+002 0.000000e+000
         vertex 2.500000e+001 6.500000e+001 2.000000e+001
      endloop
   endfacet
   facet normal -1.000000e+000 0.000000e+000 0.000000e+000
      outer loop
         vertex 2.500000e+001 6.500000e+001 2.000000e+001
         vertex 2.500000e+001 1.200000e+002 0.000000e+000
         vertex 2.500000e+001 2.000000e+001 0.000000e+000
      endloop
   endfacet
   facet normal -1.000000e+000 0.000000e+000 0.000000e+000
      outer loop
         vertex 2.500000e+001 6.500000e+001 2.000000e+001
         vertex 2.500000e+001 2.000000e+001 0.000000e+000
         vertex 2.500000e+001 6.500000e+001 4.000000e+001
      endloop
   endfacet
   facet normal -1.000000e+000 0.000000e+000 0.000000e+000
      outer loop
         vertex 2.500000e+001 6.500000e+001 4.000000e+001
         vertex 2.500000e+001 2.000000e+001 0.000000e+000
         vertex 2.500000e+001 2.000000e+001 5.000000e+001
      endloop
   endfacet
   facet normal -1.000000e+000 0.000000e+000 0.000000e+000
      outer loop
         vertex 2.500000e+001 6.500000e+001 4.000000e+001
         vertex 2.500000e+001 2.000000e+001 5.000000e+001
         vertex 2.500000e+001 1.200000e+002 5.000000e+001
      endloop
   endfacet
   facet normal 0.000000e+000 -1.000000e+000 0.000000e+000
      outer loop
         vertex 5.500000e+001 2.000000e+001 3.000000e+001
         vertex 2.500000e+001 2.000000e+001 5.000000e+001
         vertex 5.500000e+001 2.000000e+001 1.000000e+001
      endloop
   endfacet
   facet normal 0.000000e+000 -1.000000e+000 0.000000e+000
      outer loop
         vertex 5.500000e+001 2.000000e+001 1.000000e+001
         vertex 2.500000e+001 2.000000e+001 5.000000e+001
         vertex 2.500000e+001 2.000000e+001 0.000000e+000
      endloop
   endfacet
   facet normal 0.000000e+000 -1.000000e+000 0.000000e+000
      outer loop
         vertex 5.500000e+001 2.000000e+001 1.000000e+001
         vertex 2.500000e+001 2.000000e+001 0.000000e+000
         vertex 9.500000e+001 2.000000e+001 1.000000e+001
      endloop
   endfacet
   facet normal 0.000000e+000 -1.000000e+000 0.000000e+000
      outer loop
         vertex 9.500000e+001 2.000000e+001 1.000000e+001
         vertex 2.500000e+001 2.000000e+001 0.000000e+000
         vertex 1.250000e+002 2.000000e+001 0.000000e+000
      endloop
   endfacet
   facet normal 0.000000e+000 -1.000000e+000 0.000000e+000
      outer loop
         vertex 9.500000e+001 2.000000e+001 1.000000e+001
         vertex 1.250000e+002 2.000000e+001 0.000000e+000
         vertex 9.500000e+001 2.000000e+001 3.000000e+001
      endloop
   endfacet
   facet normal 0.000000e+000 -1.000000e+000 0.000000e+000
      outer loop
         vertex 9.500000e+001 2.000000e+001 3.000000e+001
         vertex 1.250000e+002 2.000000e+001 0.000000e+000
         vertex 1.250000e+002 2.000000e+001 5.000000e+001
      endloop
   endfacet
   facet normal 0.000000e+000 -1.000000e+000 0.000000e+000
      outer loop
         vertex 9.500000e+001 2.000000e+001 3.000000e+001
         vertex 1.250000e+002 2.000000e+001 5.000000e+001
         vertex 5.500000e+001 2.000000e+001 3.000000e+001
      endloop
   endfacet
   facet normal 0.000000e+000 -1.000000e+000 0.000000e+000
      outer loop
         vertex 5.500000e+001 2.000000e+001 3.000000e+001
         vertex 1.250000e+002 2.000000e+001 5.000000e+001
         vertex 2.500000e+001 2.000000e+001 5.000000e+001
      endloop
   endfacet
   facet normal 1.000000e+000 0.000000e+000 0.000000e+000
      outer loop
         vertex 1.250000e+002 1.200000e+002 5.000000e+001
         vertex 1.250000e+002 2.000000e+001 5.000000e+001
         vertex 1.250000e+002 1.200000e+002 0.000000e+000
      endloop
   endfacet
   facet normal 1.000000e+000 0.000000e+000 0.000000e+000
      outer loop
         vertex 1.250000e+002 1.200000e+002 0.000000e+000
         vertex 1.250000e+002 2.000000e+001 5.000000e+001
         vertex 1.250000e+002 2.000000e+001 0.000000e+000
      endloop
   endfacet
   facet normal 0.000000e+000 1.000000e+000 0.000000e+000
      outer loop
         vertex 2.500000e+001 1.200000e+002 5.000000e+001
         vertex 1.250000e+002 1.200000e+002 5.000000e+001
         vertex 2.500000e+001 1.200000e+002 0.000000e+000
      endloop
   endfacet
   facet normal 0.000000e+000 1.000000e+000 0.000000e+000
      outer loop
         vertex 2.500000e+001 1.200000e+002 0.000000e+000
         vertex 1.250000e+002 1.200000e+002 5.000000e+001
         vertex 1.250000e+002 1.200000e+002 0.000000e+000
      endloop
   endfacet
   facet normal 0.000000e+000 0.000000e+000 1.000000e+000
      outer loop
         vertex 2.500000e+001 1.200000e+002 5.000000e+001
         vertex 2.500000e+001 2.000000e+001 5.000000e+001
         vertex 1.250000e+002 1.200000e+002 5.000000e+001
      endloop
   endfacet
   facet normal 0.000000e+000 0.000000e+000 1.000000e+000
      outer loop
         vertex 1.250000e+002 1.200000e+002 5.000000e+001
         vertex 2.500000e+001 2.000000e+001 5.000000e+001
         vertex 1.250000e+002 2.000000e+001 5.000000e+001
      endloop
   endfacet
   facet normal 0.000000e+000 0.000000e+000 -1.000000e+000
      outer loop
         vertex 2.500000e+001 2.000000e+001 0.000000e+000
         vertex 2.500000e+001 1.200000e+002 0.000000e+000
         vertex 1.250000e+002 2.000000e+001 0.000000e+000
      endloop
   endfacet
   facet normal 0.000000e+000 0.000000e+000 -1.000000e+000
      outer loop
         vertex 1.250000e+002 2.000000e+001 0.000000e+000
         vertex 2.500000e+001 1.200000e+002 0.000000e+000
         vertex 1.250000e+002 1.200000e+002 0.000000e+000
      endloop
   endfacet
   facet normal 1.000000e+000 0.000000e+000 -1.734723e-016
      outer loop
         vertex 9.500000e+001 0.000000e+000 3.000000e+001
         vertex 9.500000e+001 0.000000e+000 1.000000e+001
         vertex 9.500000e+001 2.000000e+001 3.000000e+001
      endloop
   endfacet
   facet normal 1.000000e+000 0.000000e+000 -1.734723e-016
      outer loop
         vertex 9.500000e+001 2.000000e+001 3.000000e+001
         vertex 9.500000e+001 0.000000e+000 1.000000e+001
         vertex 9.500000e+001 2.000000e+001 1.000000e+001
      endloop
   endfacet
   facet normal 0.000000e+000 0.000000e+000 1.000000e+000
      outer loop
         vertex 5.500000e+001 0.000000e+000 3.000000e+001
         vertex 9.500000e+001 0.000000e+000 3.000000e+001
         vertex 5.500000e+001 2.000000e+001 3.000000e+001
      endloop
   endfacet
   facet normal 0.000000e+000 0.000000e+000 1.000000e+000
      outer loop
         vertex 5.500000e+001 2.000000e+001 3.000000e+001
         vertex 9.500000e+001 0.000000e+000 3.000000e+001
         vertex 9.500000e+001 2.000000e+001 3.000000e+001
      endloop
   endfacet
   facet normal -1.000000e+000 0.000000e+000 -1.734723e-016
      outer loop
         vertex 5.500000e+001 0.000000e+000 1.000000e+001
         vertex 5.500000e+001 0.000000e+000 3.000000e+001
         vertex 5.500000e+001 2.000000e+001 1.000000e+001
      endloop
   endfacet
   facet normal -1.000000e+000 0.000000e+000 -1.734723e-016
      outer loop
         vertex 5.500000e+001 2.000000e+001 1.000000e+001
         vertex 5.500000e+001 0.000000e+000 3.000000e+001
         vertex 5.500000e+001 2.000000e+001 3.000000e+001
      endloop
   endfacet
   facet normal 0.000000e+000 0.000000e+000 -1.000000e+000
      outer loop
         vertex 9.500000e+001 0.000000e+000 1.000000e+001
         vertex 5.500000e+001 0.000000e+000 1.000000e+001
         vertex 9.500000e+001 2.000000e+001 1.000000e+001
      endloop
   endfacet
   facet normal 0.000000e+000 0.000000e+000 -1.000000e+000
      outer loop
         vertex 9.500000e+001 2.000000e+001 1.000000e+001
         vertex 5.500000e+001 0.000000e+000 1.000000e+001
         vertex 5.500000e+001 2.000000e+001 1.000000e+001
      endloop
   endfacet
   facet normal 0.000000e+000 -1.000000e+000 0.000000e+000
      outer loop
         vertex 5.500000e+001 0.000000e+000 3.000000e+001
         vertex 5.500000e+001 0.000000e+000 1.000000e+001
         vertex 9.500000e+001 0.000000e+000 3.000000e+001
      endloop
   endfacet
   facet normal 0.000000e+000 -1.000000e+000 0.000000e+000
      outer loop
         vertex 9.500000e+001 0.000000e+000 3.000000e+001
         vertex 5.500000e+001 0.000000e+000 1.000000e+001
         vertex 9.500000e+001 0.000000e+000 1.000000e+001
      endloop
   endfacet
   facet normal 0.000000e+000 0.000000e+000 -1.000000e+000
      outer loop
         vertex 0.000000e+000 6.500000e+001 2.000000e+001
         vertex 0.000000e+000 1.050000e+002 2.000000e+001
         vertex 2.500000e+001 6.500000e+001 2.000000e+001
      endloop
   endfacet
   facet normal 0.000000e+000 0.000000e+000 -1.000000e+000
      outer loop
         vertex 2.500000e+001 6.500000e+001 2.000000e+001
         vertex 0.000000e+000 1.050000e+002 2.000000e+001
         vertex 2.500000e+001 1.050000e+002 2.000000e+001
      endloop
   endfacet
   facet normal 0.000000e+000 -1.000000e+000 0.000000e+000
      outer loop
         vertex 0.000000e+000 6.500000e+001 4.000000e+001
         vertex 0.000000e+000 6.500000e+001 2.000000e+001
         vertex 2.500000e+001 6.500000e+001 4.000000e+001
      endloop
   endfacet
   facet normal 0.000000e+000 -1.000000e+000 0.000000e+000
      outer loop
         vertex 2.500000e+001 6.500000e+001 4.000000e+001
         vertex 0.000000e+000 6.500000e+001 2.000000e+001
         vertex 2.500000e+001 6.500000e+001 2.000000e+001
      endloop
   endfacet
   facet normal 0.000000e+000 0.000000e+000 1.000000e+000
      outer loop
         vertex 0.000000e+000 1.050000e+002 4.000000e+001
         vertex 0.000000e+000 6.500000e+001 4.000000e+001
         vertex 2.500000e+001 1.050000e+002 4.000000e+001
      endloop
   endfacet
   facet normal 0.000000e+000 0.000000e+000 1.000000e+000
      outer loop
         vertex 2.500000e+001 1.050000e+002 4.000000e+001
         vertex 0.000000e+000 6.500000e+001 4.000000e+001
         vertex 2.500000e+001 6.500000e+001 4.000000e+001
      endloop
   endfacet
   facet normal 0.000000e+000 1.000000e+000 0.000000e+000
      outer loop
         vertex 0.000000e+000 1.050000e+002 2.000000e+001
         vertex 0.000000e+000 1.050000e+002 4.000000e+001
         vertex 2.500000e+001 1.050000e+002 2.000000e+001
      endloop
   endfacet
   facet normal 0.000000e+000 1.000000e+000 0.000000e+000
      outer loop
         vertex 2.500000e+001 1.050000e+002 2.000000e+001
         vertex 0.000000e+000 1.050000e+002 4.000000e+001
         vertex 2.500000e+001 1.050000e+002 4.000000e+001
      endloop
   endfacet
   facet normal -1.000000e+000 0.000000e+000 0.000000e+000
      outer loop
         vertex 0.000000e+000 6.500000e+001 4.000000e+001
         vertex 0.000000e+000 1.050000e+002 4.000000e+001
         vertex 0.000000e+000 6.500000e+001 2.000000e+001
      endloop
   endfacet
   facet normal -1.000000e+000 0.000000e+000 0.000000e+000
      outer loop
         vertex 0.000000e+000 6.500000e+001 2.000000e+001
         vertex 0.000000e+000 1.050000e+002 4.000000e+001
         vertex 0.000000e+000 1.050000e+002 2.000000e+001
      endloop
   endfacet
endsolid